<svg width="16" height="16" viewBox="0 0 16 16" fill="none" xmlns="http://www.w3.org/2000/svg">
<path d="M4.06555 4.09612C4.35734 3.80433 4.83027 3.80433 5.12206 4.09612L7.93944 6.9135L10.7575 4.09543C11.0492 3.80381 11.5222 3.80391 11.814 4.09543C12.1058 4.3872 12.1057 4.86015 11.814 5.15195L8.99596 7.97002L11.814 10.7881C12.1057 11.0799 12.1058 11.5528 11.814 11.8446C11.5222 12.1362 11.0492 12.1363 10.7575 11.8446L7.93944 9.02653L5.12206 11.8439C4.83027 12.1357 4.35734 12.1357 4.06555 11.8439C3.77399 11.5521 3.77383 11.0791 4.06555 10.7874L6.88292 7.97002L4.06555 5.15264C3.77382 4.86091 3.77395 4.38793 4.06555 4.09612Z" fill="white" fill-opacity="0.45"/>
</svg>
